<?xml version="1.0" encoding="UTF-8"?>
<svg width="108px" height="24px" viewBox="0 0 108 24" version="1.1" xmlns="http://www.w3.org/2000/svg" xmlns:xlink="http://www.w3.org/1999/xlink">
    <!-- Generator: Sketch 61.2 (89653) - https://sketch.com -->
    <title>编组 10</title>
    <desc>Created with Sketch.</desc>
    <g id="帐号中心" stroke="none" stroke-width="1" fill="none" fill-rule="evenodd">
        <g id="隐私中心" transform="translate(-360.000000, -12.000000)">
            <g id="编组-4">
                <g id="编组-7">
                    <g id="编组-10" transform="translate(360.000000, 12.000000)">
                        <g id="编组" transform="translate(2.000000, 4.000000)">
                            <path d="M56.4084551,10.4160584 C56.4084551,12.3259429 55.4603503,13.3455268 53.7388954,13.3455268 C52.0071214,13.3455268 51.0533956,12.2970828 51.0533956,10.3350152 L51.0533956,3.70054701 L48.6705074,3.70054701 L48.6705074,10.4160584 C48.6705074,13.7197853 50.5061443,15.6145686 53.7069312,15.6145686 C56.9381722,15.6145686 58.7911755,13.6844652 58.7911755,10.3188233 L58.7911755,3.69349977 L56.4084551,3.69349977 L56.4084551,10.4160584 Z" id="Fill-2" fill="#040201"></path>
                            <polygon id="Fill-4" fill="#040201" points="83.950198 11.7698573 81.2832391 3.69188058 79.3385379 3.69188058 76.6720824 11.7698573 74.077861 3.69876003 71.5413598 3.69876003 75.6342092 15.4388659 77.6079384 15.4388659 80.2786725 7.72667418 82.9486517 15.4388659 84.9387404 15.4388659 89.021774 3.69876003 86.5506276 3.69876003"></polygon>
                            <polygon id="Fill-6" fill="#040201" points="93.2939923 10.3842703 97.628629 10.3842703 97.628629 8.24493119 93.2939923 8.24493119 93.2939923 5.84090127 99.5858307 5.84090127 99.5858307 3.70147825 90.9431523 3.70147825 90.9431523 15.4313489 99.812265 15.4313489 99.812265 13.2921775 93.2939923 13.2921775"></polygon>
                            <polygon id="Fill-8" fill="#040201" points="102.654373 15.4225985 105.005213 15.4225985 105.005213 3.69272793 102.654373 3.69272793"></polygon>
                            <path d="M66.1832382,6.66565426 L67.882209,10.5968367 L67.8765041,10.5968367 L67.9906022,10.8694976 L64.3876195,10.8694976 L64.5017176,10.5968367 L64.4983618,10.5968367 L66.1832382,6.66565426 Z M68.8765403,12.9871078 L69.9311086,15.431911 L72.42885,15.431911 L67.3032451,3.76127068 L67.2571025,3.69348299 L65.173554,3.69348299 L59.9992897,15.431911 L62.4315924,15.431911 L63.429699,13.1586744 L63.4295312,13.1586744 L63.5013459,12.9871078 L68.8765403,12.9871078 Z" id="Fill-10" fill="#040201"></path>
                            <path d="M11.7600112,14.1938209 C11.7600112,14.1938209 11.8152145,14.1509502 11.7861866,14.0788838 L11.7868578,14.0788838 C8.15535057,6.13748918 3.18881185,0.117304974 3.18881185,0.117304974 C3.18881185,0.117304974 0.487287958,2.68593816 0.679576793,5.2571721 C0.782432863,7.20329955 2.24481798,8.35535464 2.24481798,8.35535464 C4.60136295,10.653676 10.3068546,13.5565495 11.6329092,14.2148787 C11.6512824,14.2219259 11.7193218,14.2446616 11.7600112,14.1938209" id="Fill-11" fill="#E80000"></path>
                        </g>
                        <path d="M12.8772611,20.159345 C12.8537703,20.0736036 12.7550251,20.0736036 12.7550251,20.0736036 L12.7550251,20.0710868 L3.25795342,20.4027263 C4.28768865,22.2414673 6.02239905,23.6689518 7.8295953,23.2306809 C9.07670417,22.9190086 11.9014708,20.9466218 12.8336354,20.2798191 L12.8312024,20.2778895 C12.9026815,20.2119476 12.8772611,20.159345 12.8772611,20.159345" id="Fill-17" fill="#E80000"></path>
                        <path d="M13.0205968,19.3053963 C13.0668233,19.2314842 12.9850251,19.1645355 12.9850251,19.1645355 L12.9856962,19.1623542 C8.81432051,16.3455577 0.729044828,12.0208207 0.729044828,12.0208207 C-0.00554550261,14.2988394 0.984507089,16.1342246 0.984507089,16.1342246 C2.01491349,18.3150081 3.98235043,18.9755186 3.98235043,18.9755186 C4.89102424,19.3485187 5.79894298,19.3745263 5.79894298,19.3745263 C5.94156559,19.4001984 11.447805,19.3764559 12.9235296,19.3699121 C12.9856962,19.3686536 13.0205968,19.3053963 13.0205968,19.3053963" id="Fill-24" fill="#E80000"></path>
                        <path d="M13.6512908,0.011443367 C13.2380208,0.0472668104 12.1223764,0.301806219 12.1223764,0.301806219 C9.60793983,0.951410254 9.01353913,3.2371473 9.01353913,3.2371473 C8.55429433,4.67503488 9.02520063,6.25294431 9.02520063,6.25294431 C9.86508,9.98160267 13.9953469,16.1080827 14.8827112,17.3941191 C14.9451295,17.457712 14.9952991,17.434389 14.9952991,17.434389 C15.0904368,17.4075424 15.0841446,17.3158445 15.0841446,17.3158445 L15.0854031,17.317019 C16.4516438,3.63707787 13.6512908,0.011443367 13.6512908,0.011443367" id="Fill-30" fill="#E80000"></path>
                        <path d="M16.7961696,17.4312597 C16.8871964,17.4670832 16.9339263,17.3794122 16.9339263,17.3794122 L16.9346814,17.3800834 C17.8457043,16.0603209 21.9522286,9.96681187 22.7870743,6.25300303 C22.7870743,6.25300303 23.2405303,4.45444804 22.8028467,3.23720602 C22.8028467,3.23720602 22.1821027,0.916987868 19.6638069,0.303291172 C19.6638069,0.303291172 18.9379417,0.120314755 18.1684508,0.0114181983 C18.1684508,0.0114181983 15.3531644,3.6390662 16.7220898,17.3270613 L16.723516,17.3270613 C16.7334157,17.4133061 16.7961696,17.4312597 16.7961696,17.4312597" id="Fill-36" fill="#E80000"></path>
                        <path d="M19.0444305,20.0800804 C19.0444305,20.0800804 18.9608704,20.0909868 18.9374635,20.1528179 C18.9374635,20.1528179 18.917832,20.2386432 18.9742098,20.2812621 L18.9730353,20.2820172 C19.8822125,20.9343059 22.6384363,22.8644093 23.9671757,23.2386678 C23.9671757,23.2386678 26.4222141,24.0780438 28.5538349,20.4087835 L19.0446822,20.0776474 L19.0444305,20.0800804 Z" id="Fill-42" fill="#E80000"></path>
                        <path d="M31.0827603,12.0010214 C31.0827603,12.0010214 23.0088944,16.338091 18.8347501,19.1575722 L18.8357568,19.1587467 C18.8357568,19.1587467 18.7606702,19.2079935 18.7870974,19.2969229 C18.7870974,19.2969229 18.8255216,19.3677308 18.884668,19.3677308 L18.884668,19.3686536 C20.378514,19.3720095 26.036269,19.3773788 26.179395,19.351455 C26.179395,19.351455 26.9101261,19.3223432 27.8148568,18.9755186 C27.8148568,18.9755186 29.8271779,18.3348914 30.8709237,16.0459663 C30.8709237,16.0459663 31.8037595,14.1807982 31.0827603,12.0010214" id="Fill-48" fill="#E80000"></path>
                        <path d="M18.0716017,18.1938209 C18.0716017,18.1938209 18.1374598,18.242732 18.2004654,18.201791 L18.2004654,18.2033011 C19.5604139,17.5262632 25.2222798,14.6427696 27.5672472,12.3553546 C27.5672472,12.3553546 29.052368,11.1604289 29.1300554,9.24408438 C29.3019576,6.58140417 26.6253507,4.11730497 26.6253507,4.11730497 C26.6253507,4.11730497 21.6726548,10.1188643 18.0435805,18.0420536 L18.0454262,18.0420536 C18.0454262,18.0420536 18.0033945,18.1336677 18.0716017,18.1938209" id="Fill-54" fill="#E80000"></path>
                        <polygon id="Fill-1" fill="#040201" points="44.9840013 12.4318926 39.603102 12.4318926 39.603102 7.69355011 37.2198782 7.69355011 37.2198782 19.4389414 39.603102 19.4389414 39.603102 14.6689702 44.9840013 14.6689702 44.9840013 19.4389414 47.3668896 19.4389414 47.3668896 7.69355011 44.9840013 7.69355011"></polygon>
                    </g>
                </g>
            </g>
        </g>
    </g>
</svg>